<?xml version="1.0" encoding="utf-8"?>
<!-- Generator: Adobe Illustrator 28.0.0, SVG Export Plug-In . SVG Version: 6.00 Build 0)  -->
<svg version="1.1" id="Слой_1" xmlns="http://www.w3.org/2000/svg" xmlns:xlink="http://www.w3.org/1999/xlink" x="0px" y="0px"
	 viewBox="0 0 168 168" style="enable-background:new 0 0 168 168;" xml:space="preserve">
<style type="text/css">
	.st0{fill:#FFFFFF;}
</style>
<g id="Слой_2_00000046308525718000432640000003248618454347661980_">
	<path d="M-357.3,61.3h-133.4c-8.7,0-15.8-7.1-15.8-15.8V-88c0-8.7,7.1-15.8,15.8-15.8h133.4c8.7,0,15.8,7.1,15.8,15.8V45.5
		C-341.5,54.2-348.6,61.3-357.3,61.3z"/>
</g>
<g id="Слой_1_00000058578767792157297470000017546201261276795786_">
	<g>
		<path class="st0" d="M121.5,82.9c-0.1-1.4-0.3-2.8-0.6-4.2c-3.4-16.5-17.9-28.8-35.3-28.8c-11,0-20.8,4.9-27.5,12.7
			c-1,1.1-1.9,2.3-2.7,3.6c-3.8,5.7-5.9,12.5-5.9,19.8c0,1,0,2,0.1,3.1c0.2,2.7,0.8,5.3,1.5,7.8c4.6,14.6,18.3,25.3,34.4,25.3
			c9.9,0,18.8-3.9,25.3-10.4c1.8-1.8,3.5-3.8,4.9-6c3.7-5.7,5.8-12.4,5.8-19.7C121.7,84.9,121.6,83.9,121.5,82.9z M108,100.1
			c-0.1,0.2-0.3,0.5-0.4,0.7l-22.5-9.1l-22.4,9.3c-0.1-0.2-0.3-0.4-0.4-0.7L81.1,85l3.6-23.7h0.3c0.1,0,0.3,0,0.4,0l3.4,24.1
			L108,100.1z"/>
	</g>
	<g>
		<path class="st0" d="M131.3,63c0,2-1.6,3.6-3.6,3.6S124,65,124,63s1.6-3.6,3.6-3.6S131.3,61,131.3,63z"/>
		<circle class="st0" cx="42.1" cy="110.4" r="2.2"/>
	</g>
	<g>
		<path class="st0" d="M150.3,93.7c-2.7-2.9-6.7-5.8-12.1-8.9c-3.7-2.1-8.9-4.6-14-6.7c0.2,1.1,0.3,2.2,0.4,3.3l0.1,0.5c0,0,0,0,0,0
			c1.3,0.7,2.6,1.3,3.4,1.8c4.2,2.4,7.3,4.8,9.4,6.9c2.2,2.3,3,4.5,2.6,6.2c-0.5,1.9-2.2,3.3-5.2,4.4c-2.9,1-6.7,1.6-11.6,1.7
			c-1,0.1-2,0.1-3,0c-0.6,1-1.1,2-1.8,3c-0.6,0.9-1.3,1.9-2,2.8c5.6,0.5,10.8,0.8,15.5,0.7c6.1-0.1,11.2-0.9,14.9-2.2
			c3.8-1.3,6.1-3.2,6.6-5.6C154.2,99.3,153.1,96.6,150.3,93.7z"/>
		<path class="st0" d="M46.8,87.4L46.8,87.4c-1.1-0.6-2.1-1.1-3.1-1.7c-4.2-2.4-7.3-4.8-9.4-6.9c-2.1-2.3-3-4.5-2.5-6.2
			c0.5-1.9,2.2-3.3,5.2-4.4c2.9-1,6.7-1.6,11.6-1.7h2.7c0.6-1.1,1.2-2.2,1.9-3.2c0-0.1,0.1-0.1,0.1-0.2c-4.6-0.3-10.5-0.6-14.2-0.5
			c-6.2,0.1-11.2,0.9-14.9,2.2c-3.8,1.3-6,3.2-6.6,5.6c-0.5,2.6,0.6,5.3,3.3,8.2c2.7,2.9,6.7,5.8,12.1,8.9c4.4,2.5,9.5,4.9,15,7.2
			c-0.6-2.1-1-4.3-1.1-6.6C46.8,87.8,46.8,87.6,46.8,87.4z"/>
	</g>
</g>
</svg>
