<?xml version="1.0" encoding="utf-8"?>
<!-- Generator: Adobe Illustrator 28.0.0, SVG Export Plug-In . SVG Version: 6.00 Build 0)  -->
<svg version="1.1" id="Слой_1" xmlns="http://www.w3.org/2000/svg" xmlns:xlink="http://www.w3.org/1999/xlink" x="0px" y="0px"
	 viewBox="0 0 681.5 112" style="enable-background:new 0 0 681.5 112;" xml:space="preserve">
<style type="text/css">
	.st0{fill:#020203;stroke:#020203;stroke-miterlimit:10;}
	.st1{fill:#020203;}
</style>
<g>
	<g>
		<path class="st0" d="M239,40.8c-3.9,0.4-4.4,0.9-4.4,4.7v34.8c0,3.8,0.5,4.3,4.4,4.8v1.7c-3.4-0.4-5-0.6-7.1-0.6
			c-2.1,0-3.7,0.1-7.2,0.6v-1.7c3.9-0.5,4.4-1,4.5-4.8V46c0-4.3-0.6-4.7-7.6-4.7c-7.2,0-7.7,0.4-7.7,4.7v34.4c0,3.8,0.5,4.3,4.4,4.8
			v1.7c-3.4-0.4-5.1-0.6-7.2-0.6s-3.7,0.1-7.1,0.6v-1.7c3.9-0.4,4.4-1,4.5-4.8V45.5c-0.1-3.8-0.6-4.3-4.5-4.7v-1.8H239V40.8z"/>
		<path class="st0" d="M247.6,53h24.8v1.4c-3.3,0.3-3.9,0.8-3.9,3.9v23.3c0,3.1,0.6,3.6,3.9,3.9v1.4c-2.9-0.4-4.3-0.4-6.2-0.4
			c-2,0-3.4,0.1-6.2,0.4v-1.4c2.9-0.1,3.6-0.9,3.6-3.7v-23c0-3.2-0.8-3.8-5.2-3.8c-3.9,0-4.6,0.6-4.7,4.3l-0.1,3.6
			c-0.7,16.5-3.5,24.3-8.6,24.3c-2.1,0-3.6-1.4-3.6-3.4c0-1.7,1.1-2.9,2.6-2.9c1.1,0,1.6,0.5,2.3,1.9c0.1,0.3,0.3,0.4,0.5,0.4
			c2.4,0,4.6-9.2,4.8-20.3v-3l0.1-1.4c0-3.2-0.6-3.8-3.9-4V53z"/>
		<path class="st0" d="M300.3,86.6c-1.5,0.4-2.4,0.5-3.4,0.5c-2.7,0-4.1-1.8-4.4-5.8c-1.6,4.1-3.9,6-7.4,6c-4.6,0-7.8-3.7-7.8-9.1
			c0-3.6,1.4-6.5,4.3-8.5c2.9-2.1,6.1-3.4,10.3-4v-5.1c0-4.3-1.4-6.3-4.3-6.3c-2.6,0-4.3,1.6-4.3,3.9V59c0.1,0.5,0.1,0.9,0.1,1.2
			c0,1.9-0.9,3-2.5,3c-1.4,0-2.1-0.9-2.1-2.4c0-4.6,4.3-8.5,9.3-8.5c3.3,0,6.1,1.6,7.6,4.3c0.9,1.6,1.2,3.6,1.2,7.1v14.9
			c0,4.7,0.6,6.3,2.1,6.3c0.4,0,0.7-0.1,1.4-0.2V86.6z M291.7,67.5c-6.6,1.5-9.4,4.5-9.4,10.2c0,4,1.6,6.5,4.3,6.5
			c3.4,0,5.1-3.4,5.1-10.6V67.5z"/>
		<path class="st0" d="M312.7,70.1v11.6c0,2.8,0.6,3.5,3.5,3.7v1.4c-2.8-0.4-4.3-0.4-6.1-0.4c-2,0-3.4,0.1-6.2,0.4v-1.4
			c3.3-0.2,3.9-0.8,3.9-3.9V58c0-3.1-0.6-3.6-3.9-3.9v-1.4c2.9,0.4,4.2,0.4,6.2,0.4c1.9,0,3.4-0.1,6.1-0.4v1.4
			c-2.9,0.1-3.5,0.9-3.5,3.7v10.3h10.6V57.9c0-2.9-0.7-3.6-3.6-3.7v-1.4c2.8,0.4,4.2,0.4,6.2,0.4c1.9,0,3.4-0.1,6.2-0.4v1.4
			c-3.3,0.2-3.9,0.8-3.9,3.9v23.5c0,3.1,0.6,3.6,3.9,3.9v1.4c-2.9-0.4-4.2-0.4-6.2-0.4c-1.9,0-3.4,0.1-6.2,0.4v-1.4
			c2.9-0.1,3.6-0.9,3.6-3.7V70.1H312.7z"/>
		<path class="st0" d="M358.5,75.6c-0.7,7.4-4.3,11.7-10.1,11.7c-7.1,0-11.6-6.8-11.6-17.6c0-10.4,4.5-17.5,11.1-17.5
			c6.5,0,10.2,6,10.5,16.7h-16.5c0.1,6.4,0.5,9,1.6,11.8c1.1,2.8,3.1,4.3,5.5,4.3c3.9,0,6.6-3.4,7.2-9.3H358.5z M353.5,66.6
			c-0.2-8.3-2.1-12.5-5.6-12.5c-3.3,0-5.4,4.5-5.8,12.5H353.5z"/>
		<path class="st0" d="M375.3,81.6c0,3.1,0.6,3.6,3.9,3.9v1.4c-3.1-0.4-4.5-0.4-6.3-0.4c-1.8,0-3.3,0.1-6.3,0.4v-1.4
			c3.3-0.2,3.9-0.8,3.9-3.9V54.8h-1.1c-3.6,0.1-4.6,1.2-6.4,7.4h-1.4l1.3-9.3h20.3l1.3,9.3h-1.4c-1.8-6.1-2.9-7.3-6.4-7.4h-1.1V81.6
			z"/>
		<path class="st0" d="M410.3,86.6c-1.5,0.4-2.4,0.5-3.4,0.5c-2.7,0-4.1-1.8-4.4-5.8c-1.6,4.1-3.9,6-7.4,6c-4.6,0-7.8-3.7-7.8-9.1
			c0-3.6,1.4-6.5,4.3-8.5c2.9-2.1,6.1-3.4,10.3-4v-5.1c0-4.3-1.4-6.3-4.3-6.3c-2.6,0-4.3,1.6-4.3,3.9V59c0.1,0.5,0.1,0.9,0.1,1.2
			c0,1.9-0.9,3-2.5,3c-1.4,0-2.1-0.9-2.1-2.4c0-4.6,4.3-8.5,9.3-8.5c3.3,0,6.1,1.6,7.6,4.3c0.9,1.6,1.2,3.6,1.2,7.1v14.9
			c0,4.7,0.6,6.3,2.1,6.3c0.4,0,0.7-0.1,1.4-0.2V86.6z M401.7,67.5c-6.6,1.5-9.4,4.5-9.4,10.2c0,4,1.6,6.5,4.3,6.5
			c3.4,0,5.1-3.4,5.1-10.6V67.5z"/>
		<path class="st0" d="M435.8,80.3c-0.1,3.7,0.6,4.3,4.7,4.8v1.7c-2.7-0.3-4.1-0.4-5.7-0.4c-1.7,0-3,0.1-5.8,0.4v-1.7l0.6-0.1
			c3.4-0.4,3.8-0.9,4.1-4.7l1.2-35v-0.6c0-3.1-0.9-3.8-4.7-4.1v-1.8c2.1,0.2,3.1,0.3,4.8,0.3c2.1,0,3.4-0.1,5.6-0.4L451,74.3
			l10.3-35.5c2.6,0.3,3.9,0.4,5.7,0.4c1.4,0,2.4-0.1,4.6-0.3v1.7c-4.1,0.4-4.6,0.9-4.7,4.8l0.6,35c0.1,3.9,0.6,4.3,4.7,4.8v1.7
			c-3.4-0.4-5.1-0.6-7.2-0.6c-2.2,0-3.8,0.1-7.2,0.6v-1.7c4.1-0.4,4.7-1,4.7-4.8l-0.6-36.1l-12,41.1H449l-12-41.1L435.8,80.3z"/>
		<path class="st0" d="M498.6,75.6c-0.7,7.4-4.3,11.7-10.1,11.7c-7.1,0-11.6-6.8-11.6-17.6c0-10.4,4.5-17.5,11.1-17.5
			c6.5,0,10.2,6,10.5,16.7h-16.5c0.1,6.4,0.5,9,1.6,11.8c1.1,2.8,3.1,4.3,5.5,4.3c3.9,0,6.6-3.4,7.2-9.3H498.6z M493.7,66.6
			c-0.2-8.3-2.1-12.5-5.6-12.5c-3.3,0-5.4,4.5-5.8,12.5H493.7z"/>
		<path class="st0" d="M502.9,53.5c3.2-0.3,5.3-0.6,7.6-1.3c0.4,1.7,0.6,2.8,0.8,6c1.8-4.1,3.9-5.8,7.1-5.8
			c6.2,0,10.6,7.3,10.6,17.5c0,10.3-4.3,17.5-10.5,17.5c-3,0-4.8-1.3-6.8-4.8v13.1c0,3.1,0.6,3.6,3.9,3.9v1.4
			c-3.1-0.4-4.6-0.4-6.5-0.4c-1.9,0-3.4,0.1-6.2,0.4v-1.4c3.3-0.2,3.9-0.8,3.9-3.9V59c-0.1-3.9-0.5-4.2-3.9-4.3V53.5z M511.6,69.4
			c0,10.5,2.1,15.8,6.2,15.8c3.8,0,5.8-5.2,5.8-15.3c0-10.3-2-15.7-5.9-15.7C513.8,54.3,511.6,59.7,511.6,69.4z"/>
		<path class="st0" d="M553.9,63.2h-1.5c-0.9-6.1-3-9.2-6.2-9.2c-4.1,0-6.5,5.8-6.5,16.4c0,9.6,2.2,14.6,6.4,14.6
			c3.4,0,5.4-3.2,6.1-9.4h2.3c-0.7,7.6-3.9,11.8-9,11.8c-6.7,0-11.2-6.9-11.2-17.4c0-10.6,4.6-17.9,11.3-17.9c2.5,0,4.2,0.9,5.8,3
			l1.4-3.6h1.1V63.2z"/>
		<path class="st0" d="M581.4,75.6c-0.7,7.4-4.4,11.7-10.1,11.7c-7.1,0-11.6-6.8-11.6-17.6c0-10.4,4.5-17.5,11.1-17.5
			c6.5,0,10.2,6,10.5,16.7H565c0.1,6.4,0.5,9,1.6,11.8c1.1,2.8,3.1,4.3,5.5,4.3c3.9,0,6.6-3.4,7.2-9.3H581.4z M576.4,66.6
			c-0.2-8.3-2.1-12.5-5.6-12.5c-3.3,0-5.4,4.5-5.8,12.5H576.4z"/>
		<path class="st0" d="M588.9,53h24.8v1.4c-3.3,0.3-3.8,0.8-3.8,3.9v23.1c0,3.1,0.6,3.6,3.8,3.9v9.2h-1.5c-0.5-6.3-1.7-7.8-6.8-7.8
			h-13.1c-5.1,0-6.3,1.4-6.8,7.8h-1.5v-9.2c5.7-0.1,8-6,8.6-22.4l0.1-3c0.1-4.7-0.2-5.1-3.9-5.4V53z M599.8,84.7
			c4.2,0.1,5.1-0.6,5.1-3.7V58.7c0-3.2-0.8-3.8-5.2-3.8c-3.8,0-4.6,0.6-4.7,4.3l-0.1,3.6c-0.4,8.9-1.2,14.2-3,19.4
			c-0.1,0.4-0.2,0.6-0.2,0.9c0,1.1,2.1,1.6,5.8,1.6H599.8z"/>
		<path class="st0" d="M640.1,75.6c-0.7,7.4-4.3,11.7-10.1,11.7c-7.1,0-11.6-6.8-11.6-17.6c0-10.4,4.5-17.5,11.1-17.5
			c6.5,0,10.2,6,10.5,16.7h-16.5c0.1,6.4,0.5,9,1.6,11.8c1.1,2.8,3.1,4.3,5.5,4.3c3.9,0,6.6-3.4,7.2-9.3H640.1z M635.1,66.6
			c-0.2-8.3-2.1-12.5-5.6-12.5c-3.3,0-5.4,4.5-5.8,12.5H635.1z"/>
		<path class="st0" d="M665,63.2h-1.5c-0.9-6.1-3-9.2-6.2-9.2c-4.1,0-6.5,5.8-6.5,16.4c0,9.6,2.2,14.6,6.4,14.6
			c3.4,0,5.4-3.2,6.1-9.4h2.3c-0.7,7.6-3.9,11.8-9,11.8c-6.7,0-11.2-6.9-11.2-17.4c0-10.6,4.6-17.9,11.3-17.9c2.5,0,4.2,0.9,5.8,3
			l1.4-3.6h1.1V63.2z"/>
	</g>
</g>
<g>
	<path class="st1" d="M140.7,53.9c-0.2-1.8-0.4-3.6-0.8-5.3c-4.3-20.9-22.7-36.5-44.8-36.5c-13.9,0-26.4,6.3-34.8,16.1
		c-1.2,1.4-2.4,2.9-3.4,4.5c-4.8,7.2-7.5,15.8-7.5,25.1c0,1.3,0.1,2.6,0.2,3.9c0.3,3.4,0.9,6.7,1.9,9.9c5.8,18.5,23.2,32,43.6,32
		c12.5,0,23.8-5,32.1-13.1c2.3-2.3,4.4-4.9,6.2-7.6c4.7-7.2,7.4-15.7,7.4-24.9C140.8,56.5,140.8,55.2,140.7,53.9z M123.5,75.7
		c-0.2,0.3-0.3,0.6-0.5,0.9L94.5,65L66.1,76.8c-0.2-0.3-0.3-0.6-0.5-0.9l23.9-19.3L94,26.5h0.4c0.2,0,0.4,0,0.5,0L99.3,57
		L123.5,75.7z"/>
</g>
<g>
	<path class="st1" d="M153,28.7c0,2.5-2.1,4.6-4.6,4.6s-4.6-2.1-4.6-4.6s2.1-4.6,4.6-4.6S153,26.2,153,28.7z"/>
	<circle class="st1" cx="40" cy="88.8" r="2.8"/>
</g>
<g>
	<path class="st1" d="M177.1,67.6c-3.4-3.6-8.5-7.4-15.3-11.3c-4.6-2.7-11.3-5.8-17.7-8.5c0.2,1.4,0.4,2.8,0.5,4.2l0.1,0.7
		c0,0,0,0,0,0c1.7,0.8,3.2,1.7,4.3,2.3c5.3,3,9.3,6,11.9,8.8c2.8,2.9,3.8,5.7,3.3,7.9c-0.6,2.4-2.8,4.1-6.5,5.5
		c-3.6,1.3-8.5,2-14.7,2.1c-1.2,0.1-2.5,0.1-3.8,0c-0.7,1.3-1.4,2.6-2.2,3.8c-0.8,1.2-1.6,2.4-2.5,3.5c7,0.7,13.7,1,19.6,0.8
		c7.8-0.1,14.2-1.1,18.8-2.8c4.8-1.6,7.7-4,8.4-7C182,74.7,180.6,71.3,177.1,67.6z"/>
	<path class="st1" d="M45.9,59.7C45.9,59.7,45.9,59.7,45.9,59.7c-1.4-0.7-2.7-1.4-4-2.1c-5.3-3-9.3-6-11.9-8.8
		c-2.6-2.9-3.8-5.7-3.1-7.9c0.6-2.4,2.8-4.1,6.5-5.5c3.6-1.3,8.5-2,14.7-2.1h3.4c0.7-1.4,1.6-2.8,2.4-4.1c0.1-0.1,0.1-0.2,0.2-0.2
		c-5.8-0.4-13.4-0.8-17.9-0.7c-7.8,0.1-14.2,1.1-18.8,2.8c-4.8,1.6-7.7,4-8.4,7c-0.6,3.3,0.8,6.7,4.1,10.4
		c3.4,3.6,8.5,7.4,15.3,11.3c5.6,3.2,12,6.2,19,9.1c-0.7-2.7-1.2-5.5-1.4-8.4C46,60.2,46,59.9,45.9,59.7z"/>
</g>
</svg>
