<?xml version="1.0" encoding="utf-8"?>
<!-- Generator: Adobe Illustrator 28.0.0, SVG Export Plug-In . SVG Version: 6.00 Build 0)  -->
<svg version="1.1" xmlns="http://www.w3.org/2000/svg" xmlns:xlink="http://www.w3.org/1999/xlink" x="0px" y="0px"
	 viewBox="0 0 168 168" style="enable-background:new 0 0 168 168;" xml:space="preserve">
<style type="text/css">
	.st0{fill:#FFFFFF;}
</style>
<g id="Слой_2">
	<path d="M150.72,166.5H17.28c-8.71,0-15.78-7.06-15.78-15.78V17.28C1.5,8.56,8.56,1.5,17.28,1.5h133.45
		c8.71,0,15.78,7.06,15.78,15.78v133.45C166.5,159.44,159.44,166.5,150.72,166.5z"/>
</g>
<g id="Слой_1">
	<g>
		<path class="st0" d="M121.53,82.9c-0.12-1.43-0.32-2.84-0.61-4.21c-3.38-16.48-17.95-28.77-35.34-28.77
			c-10.98,0-20.84,4.94-27.46,12.72c-0.96,1.13-1.86,2.32-2.68,3.56c-3.75,5.69-5.94,12.5-5.94,19.8c0,1.03,0.05,2.04,0.13,3.05
			c0.23,2.68,0.75,5.29,1.53,7.77c4.61,14.62,18.31,25.26,34.42,25.26c9.86,0,18.81-3.95,25.33-10.38c1.85-1.82,3.51-3.85,4.93-6.04
			c3.68-5.65,5.82-12.4,5.82-19.67C121.66,84.95,121.61,83.92,121.53,82.9z M107.97,100.08c-0.13,0.24-0.27,0.47-0.4,0.7l-22.5-9.13
			l-22.42,9.28c-0.13-0.22-0.27-0.45-0.4-0.68L81.13,85l3.58-23.74h0.35c0.14,0,0.28,0,0.41,0l3.42,24.06L107.97,100.08z"/>
	</g>
	<g>
		<path class="st0" d="M131.28,63c0,1.99-1.64,3.63-3.63,3.63s-3.63-1.64-3.63-3.63c0-1.99,1.64-3.63,3.63-3.63
			S131.28,61.01,131.28,63z"/>
		<circle class="st0" cx="42.1" cy="110.39" r="2.22"/>
	</g>
	<g>
		<path class="st0" d="M150.29,93.65c-2.68-2.88-6.74-5.85-12.1-8.93c-3.67-2.13-8.95-4.56-13.96-6.71c0.19,1.1,0.33,2.22,0.43,3.35
			l0.05,0.53c0,0.01,0,0.01,0.01,0.01c1.3,0.66,2.55,1.32,3.36,1.82c4.17,2.38,7.34,4.76,9.42,6.94c2.18,2.28,2.98,4.46,2.58,6.25
			c-0.5,1.88-2.18,3.27-5.16,4.36c-2.88,0.99-6.74,1.59-11.6,1.69c-0.99,0.05-2,0.05-3.03,0.02c-0.55,1.03-1.14,2.04-1.77,3.02
			c-0.62,0.95-1.28,1.87-1.97,2.75c5.56,0.54,10.78,0.76,15.5,0.65c6.15-0.1,11.21-0.89,14.88-2.18c3.77-1.29,6.05-3.17,6.65-5.55
			C154.16,99.3,153.07,96.62,150.29,93.65z"/>
		<path class="st0" d="M46.76,87.43C46.76,87.43,46.76,87.43,46.76,87.43c-1.09-0.55-2.14-1.09-3.12-1.67
			c-4.17-2.38-7.34-4.76-9.42-6.94c-2.08-2.28-2.98-4.46-2.48-6.25c0.5-1.88,2.18-3.27,5.16-4.36c2.88-0.99,6.74-1.59,11.6-1.69
			h2.68c0.59-1.11,1.23-2.2,1.92-3.25c0.04-0.07,0.09-0.13,0.13-0.2c-4.58-0.29-10.54-0.6-14.16-0.52
			c-6.15,0.1-11.21,0.89-14.88,2.18c-3.77,1.29-6.05,3.17-6.65,5.55c-0.5,2.58,0.6,5.26,3.27,8.23c2.68,2.88,6.74,5.85,12.1,8.93
			c4.4,2.54,9.45,4.93,15.02,7.18c-0.56-2.14-0.95-4.35-1.14-6.62C46.79,87.82,46.77,87.63,46.76,87.43z"/>
	</g>
</g>
</svg>
